Coordinates
version=1
nRows=9
nColumns=63
inDegrees=yes

Units are S.I. units (second, meters, Newtons, ...)
If the header above contains a line with 'inDegrees', this indicates whether rotational values are in degrees (yes) or radians (no).

endheader
time	pelvis_tilt	pelvis_list	pelvis_rotation	pelvis_tx	pelvis_ty	pelvis_tz	hip_flexion_r	hip_adduction_r	hip_rotation_r	knee_angle_r	knee_angle_r_beta	ankle_angle_r	subtalar_angle_r	mtp_angle_r	hip_flexion_l	hip_adduction_l	hip_rotation_l	knee_angle_l	knee_angle_l_beta	ankle_angle_l	subtalar_angle_l	mtp_angle_l	L5_S1_Flex_Ext	L5_S1_Lat_Bending	L5_S1_axial_rotation	L4_L5_Flex_Ext	L4_L5_Lat_Bending	L4_L5_axial_rotation	L3_L4_Flex_Ext	L3_L4_Lat_Bending	L3_L4_axial_rotation	L2_L3_Flex_Ext	L2_L3_Lat_Bending	L2_L3_axial_rotation	L1_L2_Flex_Ext	L1_L2_Lat_Bending	L1_L2_axial_rotation	L1_T12_Flex_Ext	L1_T12_Lat_Bending	L1_T12_axial_rotation	Abs_r3	Abs_r2	Abs_r1	Abs_t1	Abs_t2	neck_flexion	neck_bending	neck_rotation	arm_flex_r	arm_add_r	arm_rot_r	elbow_flex_r	pro_sup_r	wrist_flex_r	wrist_dev_r	arm_flex_l	arm_add_l	arm_rot_l	elbow_flex_l	pro_sup_l	wrist_flex_l	wrist_dev_l
      3.89200000	    -52.58964574	     -2.51309581	     -2.05088285	     -0.25673960	      1.01407096	      0.01816316	    106.03813561	     -2.75528175	      0.77521342	    107.58587488	      1.87772775	     10.41523650	     -5.51832650	      0.00000000	    100.86431871	     -7.09189334	      2.97099669	     58.37866272	      1.01889988	      7.98093442	      5.03383716	      0.00000000	     -0.07683119	      0.22430472	      0.27145864	     -0.14268320	      0.29832528	      0.28842480	     -0.12622596	      0.54537451	      0.28842480	     -0.08781036	      0.54537451	      0.23752631	     -0.07134544	      0.45740219	      0.22056014	     -0.04390134	      0.34744802	      0.20359398	     -0.54879748	      2.53737990	      1.50977151	      0.00000000	      0.00000000	      0.00000000	      0.00000000	      0.00000000	     74.19424313	    -10.07065112	     14.91492943	     25.80941512	     54.42570046	      0.00000000	      4.99999668	     71.35997189	     -9.77119812	     11.61092952	     30.87881036	     56.47761312	      0.00000000	      4.99999668
      3.90000000	    -52.54189836	     -2.59686343	     -2.40992938	     -0.25620739	      1.01385119	      0.01822507	    107.10626529	     -2.59173389	      0.66954626	    108.91539180	      1.90093219	     10.57508942	     -5.13723986	      0.00000000	     99.62677891	     -7.54993741	      2.67289159	     56.90184856	      0.99312461	      7.80977088	      5.20523457	      0.00000000	     -0.07647684	      0.24627639	      0.32234000	     -0.14202513	      0.32754761	      0.34248625	     -0.12564379	      0.59879643	      0.34248625	     -0.08740538	      0.59879643	      0.28204750	     -0.07101639	      0.50220682	      0.26190125	     -0.04369886	      0.38148214	      0.24175500	     -0.54626639	      2.78592783	      1.79275837	      0.00000000	      0.00000000	      0.00000000	      0.00000000	      0.00000000	     74.25980453	    -10.04352241	     15.26185514	     25.73547604	     54.50721317	      0.00000000	      4.99999673	     71.26391137	     -9.80246413	     11.50689824	     30.81678748	     56.46684066	      0.00000000	      4.99999673
      3.90800000	    -52.47167011	     -2.36641533	     -2.60996121	     -0.25567442	      1.01352481	      0.01836028	    108.29006971	     -2.45969750	      1.04251409	    110.30631959	      1.92520846	     10.70175468	     -4.24020958	      0.00000000	     98.27220432	     -7.91953221	      1.98289156	     55.41135694	      0.96711062	      7.92194911	      5.82822583	      0.00000000	     -0.07582732	      0.22170586	      0.34249212	     -0.14081892	      0.29486880	      0.36389788	     -0.12457671	      0.53905563	      0.36389788	     -0.08666305	      0.53905563	      0.29968061	     -0.07041325	      0.45210259	      0.27827485	     -0.04332773	      0.34342238	      0.25686909	     -0.54162697	      2.50798105	      1.90483843	      0.00000000	      0.00000000	      0.00000000	      0.00000000	      0.00000000	     74.28612630	    -10.12005690	     16.33091307	     25.69039378	     54.79153343	      0.00000000	      4.99999686	     71.24947111	     -9.83218031	     11.26820100	     30.72294104	     56.49399403	      0.00000000	      4.99999686
      3.91700000	    -52.42984248	     -2.40320677	     -2.92058624	     -0.25522006	      1.01328285	      0.01863341	    109.42336835	     -2.24490646	      1.04464831	    111.51515300	      1.94630659	     10.68663919	     -3.72144711	      0.00000000	     97.01169532	     -8.31756981	      1.68385994	     54.00388856	      0.94254566	      7.88405584	      6.25522801	      0.00000000	     -0.07610244	      0.23094893	      0.38726087	     -0.14132984	      0.30716207	      0.41146467	     -0.12502870	      0.56152922	      0.41146467	     -0.08697748	      0.56152922	      0.33885326	     -0.07066873	      0.47095105	      0.31464945	     -0.04348493	      0.35773989	      0.29044565	     -0.54359212	      2.61254047	      2.15382876	      0.00000000	      0.00000000	      0.00000000	      0.00000000	      0.00000000	     74.32561241	    -10.20596817	     17.17209028	     25.78757265	     55.01496281	      0.00000000	      4.99999698	     71.20687607	     -9.86010903	     11.15286788	     30.70705709	     56.54305089	      0.00000000	      4.99999698
      3.92500000	    -52.38320165	     -2.44687023	     -3.24220301	     -0.25479379	      1.01303260	      0.01899089	    110.52771920	     -1.96482274	      1.03910014	    112.63345192	      1.96582458	     10.69885998	     -3.34991915	      0.00000000	     95.75629040	     -8.74828221	      1.34566089	     52.61295752	      0.91826934	      7.81452605	      6.84802516	      0.00000000	     -0.07519325	      0.23993026	      0.44041485	     -0.13964139	      0.31910725	      0.46794078	     -0.12353499	      0.58336644	      0.46794078	     -0.08593837	      0.58336644	      0.38536299	     -0.06982445	      0.48926579	      0.35783706	     -0.04296542	      0.37165197	      0.33031114	     -0.53709788	      2.71413910	      2.44945526	      0.00000000	      0.00000000	      0.00000000	      0.00000000	      0.00000000	     74.38819891	    -10.42310856	     18.44768312	     25.85362844	     55.38301101	      0.00000000	      4.99999722	     71.16225988	     -9.86898483	     11.05979770	     30.67857651	     56.70852529	      0.00000000	      4.99999722
      3.93300000	    -52.34662338	     -2.65564777	     -3.55457489	     -0.25441916	      1.01284028	      0.01929841	    111.60210504	     -1.69734693	      0.85233434	    113.65344429	      1.98362681	     10.59716729	     -3.22237157	      0.00000000	     94.55750331	     -9.07498903	      1.31269166	     51.27953092	      0.89499665	      7.54469209	      6.92056106	      0.00000000	     -0.07557523	      0.27128908	      0.49512091	     -0.14035076	      0.36081447	      0.52606597	     -0.12416255	      0.65961226	      0.52606597	     -0.08637493	      0.65961226	      0.43323079	     -0.07017916	      0.55321268	      0.40228574	     -0.04318369	      0.42022678	      0.37134068	     -0.53982631	      3.06887628	      2.75371396	      0.00000000	      0.00000000	      0.00000000	      0.00000000	      0.00000000	     74.40012002	    -10.42258007	     18.54799379	     25.92799421	     55.39800010	      0.00000000	      4.99999725	     71.07117141	     -9.86983384	     11.03934351	     30.71532274	     56.70766387	      0.00000000	      4.99999725
      3.94200000	    -52.31098512	     -2.75056206	     -3.77353398	     -0.25411865	      1.01262171	      0.01970442	    112.73398616	     -1.43388030	      0.82960038	    114.64720400	      2.00097119	     10.40260996	     -3.10878827	      0.00000000	     93.32811920	     -9.32512446	      1.14715096	     49.94165322	      0.87164628	      7.36443975	      7.11545164	      0.00000000	     -0.07525515	      0.28446615	      0.53750942	     -0.13975633	      0.37833998	      0.57110375	     -0.12363668	      0.69165099	      0.57110375	     -0.08600911	      0.69165099	      0.47032074	     -0.06988193	      0.58008337	      0.43672640	     -0.04300079	      0.44063806	      0.40313206	     -0.53753998	      3.21793795	      2.98946611	      0.00000000	      0.00000000	      0.00000000	      0.00000000	      0.00000000	     74.37095375	    -10.43347293	     18.67095703	     26.03289615	     55.41772162	      0.00000000	      4.99999729	     71.04364158	     -9.87206933	     10.99356278	     30.77992741	     56.70466793	      0.00000000	      4.99999729
      3.95000000	    -52.23588377	     -2.53785029	     -3.84651418	     -0.25375493	      1.01233585	      0.02014748	    113.93929982	     -1.16261573	      1.20850143	    115.67656447	      2.01893692	     10.03812798	     -3.13469917	      0.00000000	     92.01279307	     -9.47511233	      0.55946786	     48.68746968	      0.84975665	      7.39412744	      7.69776279	      0.00000000	     -0.07563077	      0.25609141	      0.55907196	     -0.14045390	      0.34060157	      0.59401396	     -0.12425379	      0.62266064	      0.59401396	     -0.08643841	      0.62266064	      0.48918797	     -0.07023073	      0.52222160	      0.45424597	     -0.04321542	      0.39668559	      0.41930397	     -0.54022302	      2.89695720	      3.10939052	      0.00000000	      0.00000000	      0.00000000	      0.00000000	      0.00000000	     74.25336349	    -10.48434936	     18.90086551	     26.21059375	     55.47660448	      0.00000000	      4.99999737	     71.04159195	     -9.90203831	     10.90590644	     30.82423405	     56.73942581	      0.00000000	      4.99999737
      3.95800000	    -52.20564661	     -2.75705258	     -4.14605654	     -0.25350914	      1.01220743	      0.02061480	    114.99576767	     -0.84328579	      1.00952483	    116.48090397	      2.03297529	     10.13926105	     -3.16665127	      0.00000000	     90.92750572	     -9.80969140	      0.50085167	     47.61663224	      0.83106701	      7.13079699	      7.75182401	      0.00000000	     -0.07415066	      0.28738473	      0.62957796	     -0.13770519	      0.38222169	      0.66892658	     -0.12182212	      0.69874724	      0.66892658	     -0.08474679	      0.69874724	      0.55088071	     -0.06885630	      0.58603495	      0.51153209	     -0.04236969	      0.44515895	      0.47218347	     -0.52965075	      3.25095357	      3.50152372	      0.00000000	      0.00000000	      0.00000000	      0.00000000	      0.00000000	     74.25607339	    -10.51845143	     18.92117305	     26.22514997	     55.47000765	      0.00000000	      4.99999740	     70.95057666	     -9.83700152	     10.91955410	     30.87881413	     56.73920464	      0.00000000	      4.99999740
